<svg xmlns="http://www.w3.org/2000/svg" width="1100" height="700" viewBox="0 0 1100 700">
  <defs>
    <style>
      text { font-family: 'JetBrains Mono', monospace; }
      .tp { fill: #E0E0E0; } .ts { fill: #A0A0B8; } .tc { fill: #00BCD4; }
      .tb { fill: #0078D4; } .tg { fill: #4ADE80; } .ty { fill: #FACC15; }
      .tr { fill: #EF4444; } .tsk { fill: #888888; }
    </style>
  </defs>

  <!-- Scaffold -->
  <rect width="1100" height="700" fill="#1E1E2E"/>

  <!-- AppBar #1A1A2E elevation 0 -->
  <rect x="0" y="0" width="1100" height="48" fill="#1A1A2E"/>
  <text x="20" y="31" font-size="20" font-weight="600" fill="#E0E0E0">Dashboard</text>
  <!-- Reset button -->
  <rect x="1040" y="10" width="40" height="28" rx="6" fill="none" stroke="#5A5A7A" stroke-width="1"/>
  <text x="1050" y="29" font-size="12" fill="#A0A0B8">↻</text>

  <!-- Body padding 24 -->
  <!-- Run Info Header Card -->
  <rect x="24" y="72" width="1052" height="64" rx="12" fill="#16213E" stroke="#2A2A4A" stroke-width="1"/>
  <text x="40" y="100" font-size="28" fill="#4ADE80">✓</text>
  <text x="82" y="96" font-size="16" font-weight="600" fill="#E0E0E0">Diagnostic Run Complete</text>
  <text x="82" y="120" font-size="12" fill="#A0A0B8">⊕ Target: example.com       ⏱ 2024-06-19 14:30 UTC</text>

  <!-- Per-Group Results header -->
  <text x="24" y="172" font-size="15" font-weight="600" fill="#E0E0E0">Per-Group Results</text>

  <!-- G1 Row -->
  <rect x="24" y="188" width="1052" height="64" rx="10" fill="#16213E" stroke="#2A2A4A" stroke-width="1"/>
  <rect x="36" y="196" width="3" height="20" rx="2" fill="#0078D4"/>
  <text x="49" y="212" font-size="13" font-weight="600" fill="#E0E0E0">G1 System &amp; Adapters</text>
  <rect x="900" y="200" width="22" height="16" rx="4" fill="rgba(74,222,128,0.15)"/>
  <text x="905" y="212" font-size="10" font-weight="700" fill="#4ADE80">7</text>
  <text x="1030" y="212" font-size="11" fill="#A0A0B8">2.45s</text>
  <rect x="36" y="228" width="1028" height="4" rx="2" fill="#2A2A4A"/>
  <rect x="36" y="228" width="1028" height="4" rx="2" fill="#4ADE80"/>
  <text x="36" y="246" font-size="11" fill="#A0A0B8">✓ Network Adapters</text>

  <!-- G2 Row -->
  <rect x="24" y="258" width="1052" height="64" rx="10" fill="#16213E" stroke="#2A2A4A" stroke-width="1"/>
  <rect x="36" y="266" width="3" height="20" rx="2" fill="#0078D4"/>
  <text x="49" y="282" font-size="13" font-weight="600" fill="#E0E0E0">G2 Connectivity &amp; Security</text>
  <rect x="910" y="270" width="22" height="16" rx="4" fill="rgba(74,222,128,0.15)"/>
  <text x="915" y="282" font-size="10" font-weight="700" fill="#4ADE80">6</text>
  <text x="1030" y="282" font-size="11" fill="#A0A0B8">1.82s</text>
  <rect x="36" y="298" width="1028" height="4" rx="2" fill="#2A2A4A"/>
  <rect x="36" y="298" width="1028" height="4" rx="2" fill="#4ADE80"/>

  <!-- G3 Row -->
  <rect x="24" y="328" width="1052" height="64" rx="10" fill="#16213E" stroke="#2A2A4A" stroke-width="1"/>
  <rect x="36" y="336" width="3" height="20" rx="2" fill="#0078D4"/>
  <text x="49" y="352" font-size="13" font-weight="600" fill="#E0E0E0">G3 Internet &amp; DNS</text>
  <rect x="905" y="340" width="22" height="16" rx="4" fill="rgba(74,222,128,0.15)"/>
  <text x="910" y="352" font-size="10" font-weight="700" fill="#4ADE80">5</text>
  <rect x="930" y="340" width="22" height="16" rx="4" fill="rgba(239,68,68,0.15)"/>
  <text x="936" y="352" font-size="10" font-weight="700" fill="#EF4444">1</text>
  <text x="1030" y="352" font-size="11" fill="#A0A0B8">3.10s</text>
  <rect x="36" y="368" width="1028" height="4" rx="2" fill="#2A2A4A"/>
  <rect x="36" y="368" width="857" height="4" rx="2" fill="#FACC15"/>

  <!-- G5 Row -->
  <rect x="24" y="398" width="1052" height="64" rx="10" fill="#16213E" stroke="#2A2A4A" stroke-width="1"/>
  <rect x="36" y="406" width="3" height="20" rx="2" fill="#0078D4"/>
  <text x="49" y="422" font-size="13" font-weight="600" fill="#E0E0E0">G5 Website / URL</text>
  <rect x="890" y="410" width="22" height="16" rx="4" fill="rgba(74,222,128,0.15)"/>
  <text x="895" y="422" font-size="10" font-weight="700" fill="#4ADE80">11</text>
  <rect x="915" y="410" width="22" height="16" rx="4" fill="rgba(250,204,21,0.15)"/>
  <text x="922" y="422" font-size="10" font-weight="700" fill="#FACC15">1</text>
  <rect x="940" y="410" width="22" height="16" rx="4" fill="rgba(239,68,68,0.15)"/>
  <text x="946" y="422" font-size="10" font-weight="700" fill="#EF4444">1</text>
  <text x="1030" y="422" font-size="11" fill="#A0A0B8">12.40s</text>
  <rect x="36" y="438" width="1028" height="4" rx="2" fill="#2A2A4A"/>
  <rect x="36" y="438" width="900" height="4" rx="2" fill="#4ADE80"/>

  <!-- Overall Summary Card -->
  <rect x="24" y="490" width="1052" height="160" rx="12" fill="#16213E" stroke="#2A2A4A" stroke-width="1"/>
  <text x="40" y="520" font-size="15" font-weight="600" fill="#E0E0E0">Summary</text>

  <!-- Summary stats -->
  <text x="40" y="555" font-size="22" font-weight="700" fill="#E0E0E0">38</text>
  <text x="40" y="572" font-size="10" fill="#A0A0B8">Total Tests</text>
  <text x="180" y="555" font-size="22" font-weight="700" fill="#E0E0E0">32.8s</text>
  <text x="180" y="572" font-size="10" fill="#A0A0B8">Total Time</text>
  <text x="330" y="555" font-size="22" font-weight="700" fill="#E0E0E0">36</text>
  <text x="330" y="572" font-size="10" fill="#A0A0B8">Completed</text>

  <!-- Divider + Layer Timings -->
  <line x1="40" y1="588" x2="1060" y2="588" stroke="#2A2A4A" stroke-width="1"/>
  <text x="40" y="610" font-size="12" font-weight="600" fill="#A0A0B8">Layer Timings</text>
  <rect x="40" y="622" width="8" height="8" rx="2" fill="#0078D4"/>
  <text x="58" y="631" font-size="12" fill="#E0E0E0">G1 System &amp; Adapters</text>
  <text x="380" y="631" font-size="12" fill="#A0A0B8">2.45s</text>
  <rect x="40" y="638" width="8" height="8" rx="2" fill="#0078D4"/>
  <text x="58" y="647" font-size="12" fill="#E0E0E0">G5 Website / URL</text>
  <text x="380" y="647" font-size="12" fill="#A0A0B8">12.40s</text>

  <!-- Annotation -->
  <text x="550" y="696" font-size="9" fill="#00BCD4" text-anchor="middle">Dashboard Screen — 1100 x 750 — AppBar #1A1A2E — Body padding 24px — bg #1E1E2E</text>
</svg>
